# Blender v2.90.1 OBJ File: ''
# www.blender.org
mtllib colored_cube.mtl
o Cube
v 1.000000 1.000000 -1.000000
v 1.000000 -1.000000 -1.000000
v 1.000000 1.000000 1.000000
v 1.000000 -1.000000 1.000000
v -1.000000 1.000000 -1.000000
v -1.000000 -1.000000 -1.000000
v -1.000000 1.000000 1.000000
v -1.000000 -1.000000 1.000000
v 1.000000 0.000000 -1.000000
v 1.000000 0.000000 1.000000
v 1.000000 1.000000 0.000000
v 1.000000 -1.000000 0.000000
v 1.000000 0.000000 0.000000
vt 0.875000 0.750000
vt 0.625000 0.750000
vt 0.625000 0.625000
vt 0.625000 0.500000
vt 0.875000 0.500000
vt 0.500000 0.750000
vt 0.500000 0.625000
vt 0.625000 0.250000
vt 0.500000 0.500000
vt 0.375000 0.750000
vt 0.375000 0.625000
vt 0.375000 0.500000
vt 0.375000 0.250000
vt 0.625000 1.000000
vt 0.375000 1.000000
vt 0.625000 0.000000
vt 0.375000 0.000000
vt 0.125000 0.750000
vt 0.125000 0.500000
vn 0.0000 1.0000 0.0000
vn 1.0000 0.0000 0.0000
vn 0.0000 0.0000 -1.0000
vn 0.0000 0.0000 1.0000
vn -1.0000 0.0000 0.0000
vn 0.0000 -1.0000 0.0000
usemtl Material
s off
f 7/1/1 3/2/1 11/3/1
f 11/3/1 1/4/1 5/5/1
f 5/5/1 7/1/1 11/3/1
usemtl Material.001
f 11/3/2 10/6/2 13/7/2
f 11/3/2 3/2/2 10/6/2
usemtl Material.002
f 5/8/3 1/4/3 9/9/3
f 13/7/2 4/10/2 12/11/2
f 2/12/3 6/13/3 9/9/3
f 6/13/3 5/8/3 9/9/3
f 13/7/2 10/6/2 4/10/2
usemtl Material.003
f 10/6/4 7/14/4 8/15/4
f 9/9/2 12/11/2 2/12/2
f 8/15/4 4/10/4 10/6/4
f 10/6/4 3/2/4 7/14/4
f 9/9/2 13/7/2 12/11/2
usemtl Material.004
f 7/16/5 6/13/5 8/17/5
f 1/4/2 13/7/2 9/9/2
f 7/16/5 5/8/5 6/13/5
f 1/4/2 11/3/2 13/7/2
usemtl Material.005
f 12/11/6 4/10/6 8/18/6
f 8/18/6 6/19/6 12/11/6
f 6/19/6 2/12/6 12/11/6
