# Blender v2.90.1 OBJ File: 'star.blend'
# www.blender.org
mtllib star.mtl
o Cylinder_Cylinder.001
v 0.033547 0.046173 -0.037500
v 0.033547 0.046173 0.037500
v 0.054279 -0.017637 -0.037500
v 0.054279 -0.017637 0.037500
v -0.000000 -0.057073 -0.037500
v -0.000000 -0.057073 0.037500
v -0.054279 -0.017637 -0.037500
v -0.054279 -0.017637 0.037500
v -0.033547 0.046173 -0.037500
v -0.033547 0.046173 0.037500
v -0.009672 0.120064 -0.037500
v 0.009672 0.120064 -0.037500
v -0.007278 0.125975 -0.037500
v -0.004518 0.130088 -0.037500
v -0.001532 0.132198 -0.037500
v 0.001532 0.132198 -0.037500
v 0.004518 0.130088 -0.037500
v 0.007278 0.125975 -0.037500
v 0.009672 0.120064 0.037500
v -0.009672 0.120064 0.037500
v 0.007278 0.125975 0.037500
v 0.004518 0.130088 0.037500
v 0.001532 0.132198 0.037500
v -0.001532 0.132198 0.037500
v -0.004518 0.130088 0.037500
v -0.007278 0.125975 0.037500
v 0.111198 0.046301 -0.037500
v 0.117176 0.027903 -0.037500
v 0.117560 0.045850 -0.037500
v 0.122325 0.044496 -0.037500
v 0.125254 0.042308 -0.037500
v 0.126201 0.039395 -0.037500
v 0.125117 0.035903 -0.037500
v 0.122058 0.032007 -0.037500
v 0.117176 0.027903 0.037500
v 0.111198 0.046301 0.037500
v 0.122058 0.032007 0.037500
v 0.125117 0.035903 0.037500
v 0.126201 0.039395 0.037500
v 0.125254 0.042308 0.037500
v 0.122325 0.044496 0.037500
v 0.117560 0.045850 0.037500
v 0.078397 -0.091448 -0.037500
v 0.062747 -0.102819 -0.037500
v 0.079934 -0.097638 -0.037500
v 0.080119 -0.102588 -0.037500
v 0.078943 -0.106050 -0.037500
v 0.076465 -0.107850 -0.037500
v 0.072809 -0.107899 -0.037500
v 0.068158 -0.106193 -0.037500
v 0.062747 -0.102819 0.037500
v 0.078397 -0.091448 0.037500
v 0.068158 -0.106193 0.037500
v 0.072809 -0.107899 0.037500
v 0.076465 -0.107850 0.037500
v 0.078943 -0.106050 0.037500
v 0.080119 -0.102588 0.037500
v 0.079934 -0.097638 0.037500
v -0.062747 -0.102819 -0.037500
v -0.078397 -0.091448 -0.037500
v -0.068158 -0.106193 -0.037500
v -0.072809 -0.107899 -0.037500
v -0.076465 -0.107850 -0.037500
v -0.078943 -0.106050 -0.037500
v -0.080119 -0.102588 -0.037500
v -0.079934 -0.097638 -0.037500
v -0.078397 -0.091448 0.037500
v -0.062747 -0.102819 0.037500
v -0.079934 -0.097638 0.037500
v -0.080119 -0.102588 0.037500
v -0.078943 -0.106050 0.037500
v -0.076465 -0.107850 0.037500
v -0.072809 -0.107899 0.037500
v -0.068158 -0.106193 0.037500
v -0.117176 0.027903 -0.037500
v -0.111199 0.046301 -0.037500
v -0.122058 0.032007 -0.037500
v -0.125117 0.035903 -0.037500
v -0.126201 0.039395 -0.037500
v -0.125254 0.042308 -0.037500
v -0.122325 0.044496 -0.037500
v -0.117560 0.045850 -0.037500
v -0.111199 0.046301 0.037500
v -0.117176 0.027903 0.037500
v -0.117560 0.045850 0.037500
v -0.122325 0.044496 0.037500
v -0.125254 0.042308 0.037500
v -0.126201 0.039395 0.037500
v -0.125117 0.035903 0.037500
v -0.122058 0.032007 0.037500
vt 0.100000 1.000000
vt 0.028833 0.500000
vt 0.100000 0.500000
vt 0.771167 0.500000
vt 0.700000 1.000000
vt 0.700000 0.500000
vt 0.628833 0.500000
vt 0.571167 1.000000
vt 0.500000 0.500000
vt 0.571167 0.500000
vt 0.500000 1.000000
vt 0.428833 0.500000
vt 0.371167 1.000000
vt 0.300000 0.500000
vt 0.371167 0.500000
vt 0.300000 1.000000
vt 0.228833 0.500000
vt 0.171167 1.000000
vt 0.171167 0.500000
vt 0.900000 1.000000
vt 0.828833 0.500000
vt 0.900000 0.500000
vt 0.478254 0.175836
vt 0.108932 0.444164
vt 0.021746 0.175836
vt 0.971167 1.000000
vt 0.971167 0.500000
vt 0.028833 1.000000
vt 0.023003 0.500000
vt 0.023003 1.000000
vt 0.018638 0.500000
vt 0.018638 1.000000
vt 0.015957 0.500000
vt -0.000000 1.000000
vt -0.000000 0.500000
vt 0.984043 1.000000
vt 0.981362 0.500000
vt 0.984043 0.500000
vt 0.981362 1.000000
vt 0.976997 0.500000
vt 0.976997 1.000000
vt 0.677039 0.763867
vt 0.771167 1.000000
vt 0.843706 0.430533
vt 0.678936 0.767598
vt 0.845603 0.434265
vt 0.679375 0.771567
vt 0.846042 0.438234
vt 0.699320 0.775664
vt 0.865987 0.442330
vt 0.699866 0.779667
vt 0.868068 0.449948
vt 0.701402 0.783282
vt 0.828833 1.000000
vt 0.504581 0.682282
vt 0.671248 0.348949
vt 0.510727 0.684399
vt 0.677393 0.351066
vt 0.515872 0.686908
vt 0.682539 0.353575
vt 0.540633 0.689440
vt 0.707299 0.356107
vt 0.545844 0.691858
vt 0.712511 0.358525
vt 0.551767 0.694282
vt 0.628833 1.000000
vt 0.281566 0.694282
vt 0.448233 0.360948
vt 0.287489 0.691858
vt 0.454156 0.358525
vt 0.292700 0.689440
vt 0.459367 0.356107
vt 0.317461 0.686908
vt 0.484128 0.353575
vt 0.322606 0.684399
vt 0.495419 0.348949
vt 0.328752 0.682282
vt 0.428833 1.000000
vt 0.131932 0.783282
vt 0.298598 0.449948
vt 0.133468 0.779667
vt 0.300134 0.446334
vt 0.134013 0.775664
vt 0.300680 0.442330
vt 0.153958 0.771567
vt 0.320625 0.438234
vt 0.154397 0.767598
vt 0.321064 0.434265
vt 0.156294 0.763867
vt 0.322961 0.430533
vt 0.228833 1.000000
vt 0.521746 0.175836
vt 0.891068 0.444164
vt 0.978254 0.175836
vt 0.391068 0.444164
vt 0.290674 0.476784
vt 0.209326 0.476784
vt 0.280621 0.478863
vt 0.269035 0.479432
vt 0.230965 0.479432
vt 0.256461 0.479263
vt 0.243539 0.479263
vt 0.219379 0.478863
vt 0.046884 0.358763
vt 0.021746 0.281397
vt 0.453116 0.358763
vt 0.478254 0.281397
vt 0.416206 0.090435
vt 0.350395 0.042620
vt 0.149605 0.042620
vt 0.083794 0.090435
vt 0.250000 0.010000
vt 0.015957 1.000000
vt 0.866532 0.446334
vt 0.718434 0.360948
vt 0.489273 0.351066
vt 0.608932 0.444164
vt 0.709326 0.476784
vt 0.790674 0.476784
vt 0.719379 0.478863
vt 0.730965 0.479432
vt 0.769035 0.479432
vt 0.743539 0.479263
vt 0.756461 0.479263
vt 0.780622 0.478863
vt 0.953116 0.358763
vt 0.978254 0.281397
vt 0.546884 0.358763
vt 0.521746 0.281397
vt 0.583794 0.090435
vt 0.649605 0.042620
vt 0.850394 0.042620
vt 0.916206 0.090435
vt 0.750000 0.010000
vn -0.9516 0.3075 0.0000
vn 0.5865 -0.8100 -0.0000
vn 0.9505 0.3106 0.0000
vn -0.5891 -0.8080 0.0000
vn 0.5891 -0.8080 0.0000
vn -0.9505 0.3106 0.0000
vn -0.5865 -0.8100 0.0000
vn 0.0016 1.0000 0.0000
vn -0.0016 1.0000 0.0000
vn 0.0000 0.0000 1.0000
vn 0.9516 0.3075 0.0000
vn -0.9268 0.3755 0.0000
vn -0.8304 0.5571 0.0000
vn -0.5770 0.8168 0.0000
vn 0.0000 1.0000 0.0000
vn 0.5770 0.8168 0.0000
vn 0.8304 0.5571 0.0000
vn 0.9268 0.3755 0.0000
vn 0.6435 -0.7654 0.0000
vn 0.7865 -0.6176 0.0000
vn 0.9551 -0.2963 0.0000
vn 0.9511 0.3090 0.0000
vn 0.5985 0.8011 -0.0000
vn 0.2733 0.9619 -0.0000
vn 0.0707 0.9975 0.0000
vn -0.5291 -0.8486 0.0000
vn -0.3443 -0.9388 0.0000
vn 0.0133 -0.9999 0.0000
vn 0.5878 -0.8090 0.0000
vn 0.9469 -0.3216 0.0000
vn 0.9993 0.0374 0.0000
vn 0.9705 0.2410 0.0000
vn -0.9705 0.2410 0.0000
vn -0.9993 0.0374 0.0000
vn -0.9469 -0.3216 0.0000
vn -0.5878 -0.8090 0.0000
vn -0.0133 -0.9999 0.0000
vn 0.3443 -0.9388 0.0000
vn 0.5291 -0.8486 0.0000
vn -0.0707 0.9975 0.0000
vn -0.2733 0.9619 0.0000
vn -0.5985 0.8011 0.0000
vn -0.9511 0.3090 0.0000
vn -0.9551 -0.2964 0.0000
vn -0.7865 -0.6176 -0.0000
vn -0.6435 -0.7654 0.0000
vn -0.0000 0.0000 -1.0000
vn 0.9551 -0.2964 0.0000
vn -0.9551 -0.2963 -0.0000
usemtl Yellow
s off
f 10/1/1 11/2/1 9/3/1
f 28/4/2 4/5/2 3/6/2
f 4/5/3 43/7/3 3/6/3
f 51/8/4 5/9/4 44/10/4
f 6/11/5 59/12/5 5/9/5
f 67/13/6 7/14/6 60/15/6
f 8/16/7 75/17/7 7/14/7
f 83/18/8 9/3/8 76/19/8
f 2/20/9 27/21/9 1/22/9
f 4/23/10 10/24/10 8/25/10
f 19/26/11 1/22/11 12/27/11
f 20/28/12 13/29/12 11/2/12
f 26/30/13 14/31/13 13/29/13
f 25/32/14 15/33/14 14/31/14
f 15/33/15 23/34/15 16/35/15
f 23/36/16 17/37/16 16/38/16
f 22/39/17 18/40/17 17/37/17
f 21/41/18 12/27/18 18/40/18
f 28/4/19 37/42/19 35/43/19
f 34/44/20 38/45/20 37/42/20
f 33/46/21 39/47/21 38/45/21
f 32/48/22 40/49/22 39/47/22
f 31/50/23 41/51/23 40/49/23
f 41/51/24 29/52/24 42/53/24
f 29/52/25 36/54/25 42/53/25
f 44/10/26 53/55/26 51/8/26
f 50/56/27 54/57/27 53/55/27
f 49/58/28 55/59/28 54/57/28
f 48/60/29 56/61/29 55/59/29
f 47/62/30 57/63/30 56/61/30
f 46/64/31 58/65/31 57/63/31
f 58/65/32 43/7/32 52/66/32
f 60/15/33 69/67/33 67/13/33
f 66/68/34 70/69/34 69/67/34
f 65/70/35 71/71/35 70/69/35
f 64/72/36 72/73/36 71/71/36
f 63/74/37 73/75/37 72/73/37
f 73/75/38 61/76/38 74/77/38
f 61/76/39 68/78/39 74/77/39
f 76/19/40 85/79/40 83/18/40
f 82/80/41 86/81/41 85/79/41
f 81/82/42 87/83/42 86/81/42
f 80/84/43 88/85/43 87/83/43
f 79/86/44 89/87/44 88/85/44
f 78/88/45 90/89/45 89/87/45
f 77/90/46 84/91/46 90/89/46
f 7/92/47 1/93/47 3/94/47
f 10/1/1 20/28/1 11/2/1
f 28/4/2 35/43/2 4/5/2
f 4/5/3 52/66/3 43/7/3
f 51/8/4 6/11/4 5/9/4
f 6/11/5 68/78/5 59/12/5
f 67/13/6 8/16/6 7/14/6
f 8/16/7 84/91/7 75/17/7
f 83/18/8 10/1/8 9/3/8
f 2/20/9 36/54/9 27/21/9
f 2/95/10 19/96/10 20/97/10
f 19/96/10 21/98/10 20/97/10
f 21/98/10 22/99/10 25/100/10
f 22/99/10 23/101/10 25/100/10
f 23/101/10 24/102/10 25/100/10
f 25/100/10 26/103/10 21/98/10
f 26/103/10 20/97/10 21/98/10
f 10/24/10 83/104/10 84/105/10
f 83/104/10 85/79/10 84/105/10
f 20/97/10 10/24/10 2/95/10
f 42/53/10 36/106/10 35/107/10
f 36/106/10 2/95/10 35/107/10
f 85/79/10 86/81/10 90/89/10
f 84/105/10 85/79/10 90/89/10
f 41/51/10 42/53/10 37/42/10
f 39/47/10 40/49/10 41/51/10
f 37/42/10 38/45/10 41/51/10
f 38/45/10 39/47/10 41/51/10
f 4/23/10 35/107/10 2/95/10
f 35/107/10 37/42/10 42/53/10
f 58/65/10 52/108/10 51/109/10
f 52/108/10 4/23/10 51/109/10
f 56/61/10 57/63/10 54/57/10
f 57/63/10 58/65/10 54/57/10
f 54/57/10 55/59/10 56/61/10
f 51/109/10 53/55/10 58/65/10
f 53/55/10 54/57/10 58/65/10
f 74/77/10 68/110/10 67/111/10
f 68/110/10 6/112/10 67/111/10
f 6/112/10 51/109/10 4/23/10
f 73/75/10 74/77/10 69/67/10
f 2/95/10 10/24/10 4/23/10
f 86/81/10 87/83/10 89/87/10
f 87/83/10 88/85/10 89/87/10
f 89/87/10 90/89/10 86/81/10
f 8/25/10 67/111/10 6/112/10
f 67/111/10 69/67/10 74/77/10
f 84/105/10 8/25/10 10/24/10
f 6/112/10 4/23/10 8/25/10
f 71/71/10 72/73/10 73/75/10
f 69/67/10 70/69/10 73/75/10
f 70/69/10 71/71/10 73/75/10
f 19/26/11 2/20/11 1/22/11
f 20/28/12 26/30/12 13/29/12
f 26/30/13 25/32/13 14/31/13
f 25/32/14 24/113/14 15/33/14
f 15/33/15 24/113/15 23/34/15
f 23/36/16 22/39/16 17/37/16
f 22/39/17 21/41/17 18/40/17
f 21/41/18 19/26/18 12/27/18
f 28/4/19 34/44/19 37/42/19
f 34/44/20 33/46/20 38/45/20
f 33/46/48 32/48/48 39/47/48
f 32/48/22 31/50/22 40/49/22
f 31/50/23 30/114/23 41/51/23
f 41/51/24 30/114/24 29/52/24
f 29/52/25 27/21/25 36/54/25
f 44/10/26 50/56/26 53/55/26
f 50/56/27 49/58/27 54/57/27
f 49/58/28 48/60/28 55/59/28
f 48/60/29 47/62/29 56/61/29
f 47/62/30 46/64/30 57/63/30
f 46/64/31 45/115/31 58/65/31
f 58/65/32 45/115/32 43/7/32
f 60/15/33 66/68/33 69/67/33
f 66/68/34 65/70/34 70/69/34
f 65/70/35 64/72/35 71/71/35
f 64/72/36 63/74/36 72/73/36
f 63/74/37 62/116/37 73/75/37
f 73/75/38 62/116/38 61/76/38
f 61/76/39 59/12/39 68/78/39
f 76/19/40 82/80/40 85/79/40
f 82/80/41 81/82/41 86/81/41
f 81/82/42 80/84/42 87/83/42
f 80/84/43 79/86/43 88/85/43
f 79/86/49 78/88/49 89/87/49
f 78/88/45 77/90/45 90/89/45
f 77/90/46 75/17/46 84/91/46
f 9/117/47 11/118/47 12/119/47
f 11/118/47 13/120/47 12/119/47
f 13/120/47 14/121/47 17/122/47
f 14/121/47 15/123/47 17/122/47
f 15/123/47 16/124/47 17/122/47
f 17/122/47 18/125/47 13/120/47
f 18/125/47 12/119/47 13/120/47
f 1/93/47 27/126/47 28/127/47
f 27/126/47 29/52/47 28/127/47
f 12/119/47 1/93/47 9/117/47
f 82/80/47 76/128/47 75/129/47
f 76/128/47 9/117/47 75/129/47
f 29/52/47 30/114/47 34/44/47
f 28/127/47 29/52/47 34/44/47
f 81/82/47 82/80/47 77/90/47
f 79/86/47 80/84/47 81/82/47
f 77/90/47 78/88/47 81/82/47
f 78/88/47 79/86/47 81/82/47
f 7/92/47 75/129/47 9/117/47
f 75/129/47 77/90/47 82/80/47
f 66/68/47 60/130/47 59/131/47
f 60/130/47 7/92/47 59/131/47
f 64/72/47 65/70/47 62/116/47
f 65/70/47 66/68/47 62/116/47
f 62/116/47 63/74/47 64/72/47
f 59/131/47 61/76/47 66/68/47
f 61/76/47 62/116/47 66/68/47
f 50/56/47 44/132/47 43/133/47
f 44/132/47 5/134/47 43/133/47
f 5/134/47 59/131/47 7/92/47
f 49/58/47 50/56/47 45/115/47
f 9/117/47 1/93/47 7/92/47
f 30/114/47 31/50/47 33/46/47
f 31/50/47 32/48/47 33/46/47
f 33/46/47 34/44/47 30/114/47
f 3/94/47 43/133/47 5/134/47
f 43/133/47 45/115/47 50/56/47
f 28/127/47 3/94/47 1/93/47
f 5/134/47 7/92/47 3/94/47
f 47/62/47 48/60/47 49/58/47
f 45/115/47 46/64/47 49/58/47
f 46/64/47 47/62/47 49/58/47
